<svg xmlns="http://www.w3.org/2000/svg" xmlns:xlink="http://www.w3.org/1999/xlink" zoomAndPan="magnify" preserveAspectRatio="xMidYMid meet" version="1.0" viewBox="102.17 143.05 253.3 57.88"><defs><g/><clipPath id="id1"><path d="M 305.011719 143.046875 L 325.261719 143.046875 L 325.261719 163.296875 L 305.011719 163.296875 Z M 305.011719 143.046875 " clip-rule="nonzero"/></clipPath></defs><g fill="#545454" fill-opacity="1"><g transform="translate(98.123875, 200.3353)"><g><path d="M 25.4375 0 L 25.4375 -18.5 C 25.4375 -20.75 25.113281 -22.445312 24.46875 -23.59375 C 23.820312 -24.75 22.78125 -25.328125 21.34375 -25.328125 C 19.363281 -25.328125 17.9375 -24.535156 17.0625 -22.953125 C 16.1875 -21.378906 15.75 -18.675781 15.75 -14.84375 L 15.75 0 L 4.046875 0 L 4.046875 -33.90625 L 12.875 -33.90625 L 14.34375 -29.71875 L 15.03125 -29.71875 C 16.019531 -31.3125 17.394531 -32.507812 19.15625 -33.3125 C 20.925781 -34.113281 22.960938 -34.515625 25.265625 -34.515625 C 29.015625 -34.515625 31.929688 -33.425781 34.015625 -31.25 C 36.097656 -29.070312 37.140625 -26.007812 37.140625 -22.0625 L 37.140625 0 Z M 25.4375 0 "/></g></g></g><g fill="#545454" fill-opacity="1"><g transform="translate(139.182756, 200.3353)"><g><path d="M 26.15625 0 L 23.921875 -4.484375 L 23.671875 -4.484375 C 22.097656 -2.535156 20.492188 -1.203125 18.859375 -0.484375 C 17.222656 0.234375 15.109375 0.59375 12.515625 0.59375 C 9.316406 0.59375 6.800781 -0.359375 4.96875 -2.265625 C 3.132812 -4.179688 2.21875 -6.878906 2.21875 -10.359375 C 2.21875 -13.960938 3.472656 -16.648438 5.984375 -18.421875 C 8.492188 -20.191406 12.132812 -21.1875 16.90625 -21.40625 L 22.5625 -21.578125 L 22.5625 -22.0625 C 22.5625 -24.851562 21.1875 -26.25 18.4375 -26.25 C 15.957031 -26.25 12.816406 -25.410156 9.015625 -23.734375 L 5.625 -31.453125 C 9.570312 -33.492188 14.5625 -34.515625 20.59375 -34.515625 C 24.9375 -34.515625 28.300781 -33.4375 30.6875 -31.28125 C 33.070312 -29.125 34.265625 -26.109375 34.265625 -22.234375 L 34.265625 0 Z M 17.484375 -7.65625 C 18.898438 -7.65625 20.109375 -8.101562 21.109375 -9 C 22.117188 -9.90625 22.625 -11.078125 22.625 -12.515625 L 22.625 -15.140625 L 19.9375 -15.03125 C 16.082031 -14.882812 14.15625 -13.46875 14.15625 -10.78125 C 14.15625 -8.695312 15.265625 -7.65625 17.484375 -7.65625 Z M 17.484375 -7.65625 "/></g></g></g><g fill="#545454" fill-opacity="1"><g transform="translate(177.368713, 200.3353)"><g><path d="M 24.515625 -34.515625 C 25.535156 -34.515625 26.503906 -34.429688 27.421875 -34.265625 L 28.078125 -34.15625 L 27.03125 -23.109375 C 26.070312 -23.347656 24.742188 -23.46875 23.046875 -23.46875 C 20.492188 -23.46875 18.640625 -22.882812 17.484375 -21.71875 C 16.328125 -20.550781 15.75 -18.867188 15.75 -16.671875 L 15.75 0 L 4.046875 0 L 4.046875 -33.90625 L 12.75 -33.90625 L 14.578125 -28.5 L 15.140625 -28.5 C 16.117188 -30.289062 17.476562 -31.738281 19.21875 -32.84375 C 20.96875 -33.957031 22.734375 -34.515625 24.515625 -34.515625 Z M 24.515625 -34.515625 "/></g></g></g><g fill="#545454" fill-opacity="1"><g transform="translate(206.127885, 200.3353)"><g><path d="M 20.40625 0.59375 C 14.757812 0.59375 10.375 -0.90625 7.25 -3.90625 C 4.132812 -6.90625 2.578125 -11.179688 2.578125 -16.734375 C 2.578125 -22.460938 4.019531 -26.859375 6.90625 -29.921875 C 9.800781 -32.984375 13.9375 -34.515625 19.3125 -34.515625 C 24.414062 -34.515625 28.359375 -33.179688 31.140625 -30.515625 C 33.921875 -27.847656 35.3125 -24.007812 35.3125 -19 L 35.3125 -13.796875 L 14.390625 -13.796875 C 14.472656 -11.898438 15.164062 -10.410156 16.46875 -9.328125 C 17.78125 -8.253906 19.5625 -7.71875 21.8125 -7.71875 C 23.875 -7.71875 25.765625 -7.910156 27.484375 -8.296875 C 29.210938 -8.691406 31.085938 -9.359375 33.109375 -10.296875 L 33.109375 -1.890625 C 31.265625 -0.953125 29.363281 -0.304688 27.40625 0.046875 C 25.457031 0.410156 23.125 0.59375 20.40625 0.59375 Z M 19.71875 -26.546875 C 18.34375 -26.546875 17.191406 -26.109375 16.265625 -25.234375 C 15.335938 -24.367188 14.796875 -23.007812 14.640625 -21.15625 L 24.6875 -21.15625 C 24.644531 -22.789062 24.179688 -24.097656 23.296875 -25.078125 C 22.410156 -26.054688 21.21875 -26.546875 19.71875 -26.546875 Z M 19.71875 -26.546875 "/></g></g></g><g fill="#545454" fill-opacity="1"><g transform="translate(244.014578, 200.3353)"><g><path d="M 45.671875 0 L 45.671875 -18.4375 C 45.671875 -20.726562 45.351562 -22.445312 44.71875 -23.59375 C 44.09375 -24.75 43.101562 -25.328125 41.75 -25.328125 C 39.957031 -25.328125 38.640625 -24.554688 37.796875 -23.015625 C 36.960938 -21.484375 36.546875 -19.078125 36.546875 -15.796875 L 36.546875 0 L 24.8125 0 L 24.8125 -18.4375 C 24.8125 -20.726562 24.507812 -22.445312 23.90625 -23.59375 C 23.3125 -24.75 22.347656 -25.328125 21.015625 -25.328125 C 19.171875 -25.328125 17.832031 -24.503906 17 -22.859375 C 16.164062 -21.222656 15.75 -18.550781 15.75 -14.84375 L 15.75 0 L 4.046875 0 L 4.046875 -33.90625 L 12.875 -33.90625 L 14.34375 -29.71875 L 15.03125 -29.71875 C 15.925781 -31.28125 17.222656 -32.46875 18.921875 -33.28125 C 20.628906 -34.101562 22.570312 -34.515625 24.75 -34.515625 C 29.632812 -34.515625 33.066406 -33.023438 35.046875 -30.046875 L 35.96875 -30.046875 C 36.925781 -31.441406 38.257812 -32.535156 39.96875 -33.328125 C 41.675781 -34.117188 43.554688 -34.515625 45.609375 -34.515625 C 49.617188 -34.515625 52.582031 -33.484375 54.5 -31.421875 C 56.414062 -29.367188 57.375 -26.25 57.375 -22.0625 L 57.375 0 Z M 45.671875 0 "/></g></g></g><g fill="#545454" fill-opacity="1"><g transform="translate(305.303625, 200.3353)"><g><path d="M 15.796875 0 L 4.09375 0 L 4.09375 -33.90625 L 15.796875 -33.90625 Z M 3.796875 -42.34375 C 3.796875 -44.101562 4.285156 -45.410156 5.265625 -46.265625 C 6.242188 -47.128906 7.820312 -47.5625 10 -47.5625 C 12.175781 -47.5625 13.757812 -47.117188 14.75 -46.234375 C 15.75 -45.359375 16.25 -44.0625 16.25 -42.34375 C 16.25 -38.914062 14.164062 -37.203125 10 -37.203125 C 5.863281 -37.203125 3.796875 -38.914062 3.796875 -42.34375 Z M 3.796875 -42.34375 "/></g></g></g><g fill="#545454" fill-opacity="1"><g transform="translate(325.23454, 200.3353)"><g><path d="M 30.234375 -10.421875 C 30.234375 -6.785156 28.992188 -4.039062 26.515625 -2.1875 C 24.046875 -0.332031 20.492188 0.59375 15.859375 0.59375 C 13.347656 0.59375 11.164062 0.457031 9.3125 0.1875 C 7.457031 -0.0703125 5.5625 -0.5625 3.625 -1.28125 L 3.625 -10.65625 C 5.4375 -9.851562 7.425781 -9.191406 9.59375 -8.671875 C 11.757812 -8.160156 13.691406 -7.90625 15.390625 -7.90625 C 17.921875 -7.90625 19.1875 -8.484375 19.1875 -9.640625 C 19.1875 -10.234375 18.832031 -10.765625 18.125 -11.234375 C 17.414062 -11.703125 15.351562 -12.617188 11.9375 -13.984375 C 8.820312 -15.253906 6.644531 -16.703125 5.40625 -18.328125 C 4.175781 -19.953125 3.5625 -22.015625 3.5625 -24.515625 C 3.5625 -27.660156 4.773438 -30.113281 7.203125 -31.875 C 9.640625 -33.632812 13.082031 -34.515625 17.53125 -34.515625 C 19.769531 -34.515625 21.867188 -34.269531 23.828125 -33.78125 C 25.796875 -33.289062 27.835938 -32.578125 29.953125 -31.640625 L 26.78125 -24.09375 C 25.226562 -24.789062 23.582031 -25.382812 21.84375 -25.875 C 20.113281 -26.363281 18.695312 -26.609375 17.59375 -26.609375 C 15.675781 -26.609375 14.71875 -26.140625 14.71875 -25.203125 C 14.71875 -24.617188 15.050781 -24.125 15.71875 -23.71875 C 16.394531 -23.3125 18.328125 -22.476562 21.515625 -21.21875 C 23.890625 -20.238281 25.660156 -19.28125 26.828125 -18.34375 C 27.992188 -17.40625 28.851562 -16.300781 29.40625 -15.03125 C 29.957031 -13.769531 30.234375 -12.234375 30.234375 -10.421875 Z M 30.234375 -10.421875 "/></g></g></g><path stroke-linecap="butt" transform="matrix(0.000000000000000731, -11.943204, 11.999999, 0.000000000000000735, 315.228207, 200.40069)" fill="none" stroke-linejoin="miter" d="M -0.000138464 -0.000137042 L 2.889188 -0.000137042 " stroke="#a6a6a6" stroke-width="1" stroke-opacity="1" stroke-miterlimit="4"/><g clip-path="url(#id1)"><path fill="#e67b39" d="M 315.136719 143.046875 C 309.542969 143.046875 305.011719 147.578125 305.011719 153.171875 C 305.011719 158.761719 309.542969 163.296875 315.136719 163.296875 C 320.726562 163.296875 325.261719 158.761719 325.261719 153.171875 C 325.261719 147.578125 320.726562 143.046875 315.136719 143.046875 " fill-opacity="1" fill-rule="nonzero"/></g></svg>