<svg xmlns="http://www.w3.org/2000/svg" xmlns:xlink="http://www.w3.org/1999/xlink" width="500" zoomAndPan="magnify" viewBox="0 0 375 374.999991" height="500" preserveAspectRatio="xMidYMid meet" version="1.0"><defs><clipPath id="id1"><path d="M 27.300781 24.542969 L 347.550781 24.542969 L 347.550781 350.042969 L 27.300781 350.042969 Z M 27.300781 24.542969 " clip-rule="nonzero"/></clipPath></defs><g clip-path="url(#id1)"><path fill="#d9d9d9" d="M 27.304688 24.542969 L 347.550781 24.542969 L 347.550781 350.042969 L 27.304688 350.042969 L 27.304688 24.542969 " fill-opacity="1" fill-rule="nonzero"/><path fill="#d9d9d9" d="M 27.304688 24.542969 L 347.550781 24.542969 L 347.550781 350.042969 L 27.304688 350.042969 L 27.304688 24.542969 " fill-opacity="1" fill-rule="nonzero"/></g><path stroke-linecap="butt" transform="matrix(-40.460359, -35.855403, 35.814585, -40.414296, 325.252572, 303.548798)" fill="none" stroke-linejoin="miter" d="M 0.0000051157 0.0000430353 L 5.521475 -0.00000365938 " stroke="#a6a6a6" stroke-width="1" stroke-opacity="1" stroke-miterlimit="4"/><path stroke-linecap="butt" transform="matrix(0.000000000000003308, -54.01749, 53.999996, 0.000000000000003307, 93.446226, 374.998833)" fill="none" stroke-linejoin="miter" d="M -0.0000216046 -0.0000169086 L 5.359426 -0.0000169086 " stroke="#737373" stroke-width="1" stroke-opacity="1" stroke-miterlimit="4"/><path stroke-linecap="butt" transform="matrix(-54.079321, -0.000000000000006623, 0.000000000000006613, -53.999996, 342.410372, 308.591435)" fill="none" stroke-linejoin="miter" d="M 0.00000399718 0.0000294664 L 3.397791 0.0000294664 " stroke="#545454" stroke-width="1" stroke-opacity="1" stroke-miterlimit="4"/><path stroke-linecap="butt" transform="matrix(0.000000000000003303, -53.94531, 53.999996, 0.000000000000003307, 185.929108, 335.590641)" fill="none" stroke-linejoin="miter" d="M 0.0000147819 0.0000107261 L 6.214642 0.0000107261 " stroke="#545454" stroke-width="1" stroke-opacity="1" stroke-miterlimit="4"/></svg>